<?xml version="1.0" encoding="UTF-8"?>
<svg height="600" width="800" xmlns="http://www.w3.org/2000/svg" xmlns:xlink="http://www.w3.org/1999/xlink">
    <g id="Notes" font-family="'LucidaGrande', 'Lucida Grande', sans-serif" font-size="13">
        <rect fill="white" height="600.0" width="800.0" x="0.0" y="0.0" />
        <g font-size="13">
            <text x="18.0" y="176.0">Small</text>
            <text x="18.0" y="376.0">Medium</text>
            <text x="18.0" y="576.0">Large</text>
        </g>
        <g font-size="9">
            <text x="250.0" y="30.0">Ultralight</text>
            <text x="450.0" y="30.0">Regular</text>
            <text x="650.0" y="30.0">Black</text>
            <text id="template-version" fill="#505050" text-anchor="end" x="785.0" y="575.0">Template v.3.0</text>
            <a href="https://wangchujiang.com/#/app">
                <text fill="#505050" text-anchor="end" x="785.0" y="590.0">https://wangchujiang.com/#/app</text>
            </a>
        </g>
    </g>
    <g id="Guides" stroke="rgb(39, 170, 225)" stroke-width="0.5">
        <path id="Capline-S" d="M18,76 l800,0" />
        <path id="H-reference" d="M85,145.755 L87.685,145.755 L113.369,79.287 L114.052,79.287 L114.052,76 L112.148,76 L85,145.755 Z M95.693,121.536 L130.996,121.536 L130.263,119.313 L96.474,119.313 L95.693,121.536 Z M139.15,145.755 L141.787,145.755 L114.638,76 L113.466,76 L113.466,79.287 L139.15,145.755 Z" stroke="none" />
        <path id="Baseline-S" d="M18,146 l800,0" />
        <path id="left-margin-Ultralight-S" d="M221,56 l0,110" />
        <path id="right-margin-Ultralight-S" d="M309,56 l0,110" />
        <path id="left-margin-Regular-S" d="M421,56 l0,110" />
        <path id="right-margin-Regular-S" d="M509,56 l0,110" />
        <path id="left-margin-Black-S" d="M621,56 l0,110" />
        <path id="right-margin-Black-S" d="M709,56 l0,110" />
        <path id="Capline-M" d="M18,276 l800,0" />
        <path id="Baseline-M" d="M18,346 l800,0" />
        <path id="Capline-L" d="M18,476 l800,0" />
        <path id="Baseline-L" d="M18,546 l800,0" />
    </g>
    <g id="Symbols">
        <g id="Ultralight-S">
            <path d="M262.275,76.695 C271.356,76.695 278.718,84.045 278.718,93.111 C278.718,93.146 278.717,93.18 278.716,93.214 C280.621,93.352 282.001,93.641 283.185,94.255 C284.835,95.111 286.22,96.391 287.201,97.957 C285.924,97.593 284.197,97.593 281.316,97.593 L278.096,97.593 C277.922,98.209 277.713,98.81 277.47,99.394 L269.638,99.394 C269.806,98.875 269.897,98.312 269.897,97.71 C269.897,95.833 268.996,94.406 267.619,93.534 C268.625,92.661 269.235,91.445 269.235,89.912 C269.235,86.994 267.051,84.999 264.215,84.673 L264.215,81.271 L260.141,81.271 L260.141,84.626 L256.129,84.626 L256.129,99.394 L247.079,99.394 C246.84,98.817 246.632,98.223 246.459,97.614 C244.654,97.661 243.504,97.813 242.559,98.303 C242.043,98.57 241.57,98.906 241.15,99.299 C241.976,100.707 243.508,101.646 245.25,101.647 L274.572,101.647 C280.677,101.647 283.729,101.647 286.036,102.889 C287.817,103.849 289.279,105.307 290.241,107.086 C291.153,108.775 291.397,110.864 291.461,114.262 C291.07,114.257 290.63,114.257 290.132,114.257 L279.305,114.257 C274.073,114.257 269.831,118.491 269.831,123.715 C269.831,128.938 274.072,133.173 279.305,133.173 L290.132,133.173 C290.64,133.173 291.088,133.173 291.485,133.168 L291.485,133.25 C291.485,135.271 291.485,136.281 291.344,137.126 C290.616,141.494 287.187,144.916 282.812,145.644 C281.967,145.784 280.954,145.784 278.93,145.784 L251.555,145.784 C245.451,145.784 242.398,145.784 240.091,144.541 C238.31,143.582 236.849,142.123 235.887,140.344 C234.643,138.042 234.643,134.994 234.643,128.899 L234.643,110.139 C234.643,104.24 234.643,100.918 235.811,98.673 C236.796,96.781 238.341,95.238 240.236,94.255 C241.642,93.526 243.324,93.254 245.831,93.152 C245.831,93.138 245.831,93.125 245.831,93.111 C245.831,84.045 253.193,76.695 262.275,76.695 Z" />
            <path d="M289.906,116.959 C290.954,116.959 291.478,116.959 291.914,117.046 C293.703,117.401 295.102,118.798 295.458,120.584 C295.545,121.019 295.545,121.543 295.545,122.589 L295.545,124.841 C295.545,125.887 295.545,126.41 295.458,126.845 C295.102,128.632 293.704,130.029 291.914,130.384 C291.478,130.471 290.954,130.471 289.906,130.471 L279.756,130.471 C276.019,130.471 272.989,127.446 272.989,123.715 C272.989,119.984 276.019,116.959 279.756,116.959 L289.906,116.959 Z M279.756,121.463 C278.51,121.463 277.5,122.471 277.5,123.715 C277.5,124.958 278.51,125.967 279.756,125.967 C281.001,125.967 282.011,124.958 282.011,123.715 C282.011,122.471 281.001,121.463 279.756,121.463 Z" />
            <path d="M263.913,95.622 C264.972,95.622 265.66,96.362 265.66,97.393 C265.66,98.424 264.971,99.164 263.913,99.164 L260.365,99.164 L260.365,95.622 L263.913,95.622 Z" />
            <path d="M263.383,88.591 C264.363,88.591 264.998,89.278 264.999,90.229 C264.999,91.181 264.336,91.868 263.383,91.868 L260.365,91.868 L260.365,88.591 L263.383,88.591 Z" />
        </g>
        <g id="Regular-S">
            <path d="M462.275,76.695 C471.356,76.695 478.718,84.045 478.718,93.111 C478.718,93.146 478.717,93.18 478.716,93.214 C480.621,93.352 482.001,93.641 483.185,94.255 C484.835,95.111 486.22,96.391 487.201,97.957 C485.924,97.593 484.197,97.593 481.316,97.593 L478.096,97.593 C477.922,98.209 477.713,98.81 477.47,99.394 L469.638,99.394 C469.806,98.875 469.897,98.312 469.897,97.71 C469.897,95.833 468.996,94.406 467.619,93.534 C468.625,92.661 469.235,91.445 469.235,89.912 C469.235,86.994 467.051,84.999 464.215,84.673 L464.215,81.271 L460.141,81.271 L460.141,84.626 L456.129,84.626 L456.129,99.394 L447.079,99.394 C446.84,98.817 446.632,98.223 446.459,97.614 C444.654,97.661 443.504,97.813 442.559,98.303 C442.043,98.57 441.569,98.906 441.15,99.299 C441.976,100.707 443.508,101.646 445.25,101.647 L474.572,101.647 C480.677,101.647 483.729,101.647 486.036,102.889 C487.817,103.849 489.279,105.307 490.241,107.086 C491.153,108.775 491.396,110.864 491.461,114.262 C491.07,114.257 490.63,114.257 490.132,114.257 L479.305,114.257 C474.072,114.257 469.831,118.491 469.83,123.715 C469.83,128.938 474.072,133.173 479.305,133.173 L490.132,133.173 C490.64,133.173 491.088,133.173 491.485,133.168 L491.485,133.25 C491.485,135.271 491.485,136.281 491.344,137.126 C490.616,141.494 487.187,144.916 482.812,145.644 C481.967,145.784 480.954,145.784 478.93,145.784 L451.555,145.784 C445.451,145.784 442.398,145.784 440.091,144.541 C438.31,143.582 436.849,142.123 435.887,140.344 C434.643,138.042 434.643,134.994 434.643,128.899 L434.643,110.139 C434.643,104.24 434.643,100.918 435.811,98.673 C436.796,96.781 438.341,95.238 440.236,94.255 C441.642,93.526 443.324,93.254 445.831,93.152 C445.831,93.138 445.831,93.125 445.831,93.111 C445.831,84.045 453.193,76.695 462.275,76.695 Z" />
            <path d="M489.906,116.959 C490.954,116.959 491.478,116.959 491.914,117.046 C493.703,117.401 495.102,118.798 495.458,120.584 C495.545,121.019 495.545,121.543 495.545,122.589 L495.545,124.841 C495.545,125.887 495.545,126.41 495.458,126.845 C495.102,128.632 493.704,130.029 491.914,130.384 C491.478,130.471 490.954,130.471 489.906,130.471 L479.756,130.471 C476.019,130.471 472.989,127.446 472.989,123.715 C472.989,119.984 476.019,116.959 479.756,116.959 L489.906,116.959 Z M479.756,121.463 C478.51,121.463 477.5,122.471 477.5,123.715 C477.5,124.958 478.51,125.967 479.756,125.967 C481.001,125.967 482.011,124.958 482.011,123.715 C482.011,122.471 481.001,121.463 479.756,121.463 Z" />
            <path d="M463.912,95.622 C464.972,95.622 465.66,96.362 465.66,97.393 C465.66,98.424 464.971,99.164 463.912,99.164 L460.365,99.164 L460.365,95.622 L463.912,95.622 Z" />
            <path d="M463.383,88.591 C464.363,88.591 464.998,89.278 464.999,90.229 C464.999,91.181 464.336,91.868 463.383,91.868 L460.365,91.868 L460.365,88.591 L463.383,88.591 Z" />
        </g>
        <g id="Black-S">
            <path d="M662.275,76.695 C671.356,76.695 678.718,84.045 678.718,93.111 C678.718,93.146 678.717,93.18 678.716,93.214 C680.621,93.352 682.001,93.641 683.185,94.255 C684.835,95.111 686.22,96.391 687.201,97.957 C685.924,97.593 684.197,97.593 681.316,97.593 L678.096,97.593 C677.922,98.209 677.713,98.81 677.47,99.394 L669.638,99.394 C669.806,98.875 669.897,98.312 669.897,97.71 C669.897,95.833 668.996,94.406 667.619,93.534 C668.625,92.661 669.235,91.445 669.235,89.912 C669.235,86.994 667.051,84.999 664.215,84.673 L664.215,81.271 L660.141,81.271 L660.141,84.626 L656.129,84.626 L656.129,99.394 L647.079,99.394 C646.84,98.817 646.632,98.223 646.459,97.614 C644.654,97.661 643.504,97.813 642.559,98.303 C642.043,98.57 641.57,98.906 641.15,99.299 C641.976,100.707 643.508,101.646 645.25,101.647 L674.572,101.647 C680.677,101.647 683.729,101.647 686.036,102.889 C687.817,103.849 689.279,105.307 690.241,107.086 C691.153,108.775 691.397,110.864 691.461,114.262 C691.07,114.257 690.63,114.257 690.132,114.257 L679.305,114.257 C674.073,114.257 669.831,118.491 669.831,123.715 C669.831,128.938 674.072,133.173 679.305,133.173 L690.132,133.173 C690.64,133.173 691.088,133.173 691.485,133.168 L691.485,133.25 C691.485,135.271 691.485,136.281 691.344,137.126 C690.616,141.494 687.187,144.916 682.812,145.644 C681.967,145.784 680.954,145.784 678.93,145.784 L651.556,145.784 C645.451,145.784 642.398,145.784 640.091,144.541 C638.31,143.582 636.849,142.123 635.887,140.344 C634.643,138.042 634.643,134.994 634.643,128.899 L634.643,110.139 C634.643,104.24 634.643,100.918 635.811,98.673 C636.796,96.781 638.341,95.238 640.236,94.255 C641.642,93.526 643.324,93.254 645.831,93.152 C645.831,93.138 645.831,93.125 645.831,93.111 C645.831,84.045 653.193,76.695 662.275,76.695 Z" />
            <path d="M689.906,116.959 C690.954,116.959 691.478,116.959 691.914,117.046 C693.703,117.401 695.102,118.798 695.458,120.584 C695.545,121.019 695.545,121.543 695.545,122.589 L695.545,124.841 C695.545,125.887 695.545,126.41 695.458,126.845 C695.102,128.632 693.704,130.029 691.914,130.384 C691.478,130.471 690.954,130.471 689.906,130.471 L679.756,130.471 C676.019,130.471 672.989,127.446 672.989,123.715 C672.989,119.984 676.019,116.959 679.756,116.959 L689.906,116.959 Z M679.756,121.463 C678.51,121.463 677.5,122.471 677.5,123.715 C677.5,124.958 678.51,125.967 679.756,125.967 C681.002,125.967 682.011,124.958 682.011,123.715 C682.011,122.471 681.001,121.463 679.756,121.463 Z" />
            <path d="M663.913,95.622 C664.972,95.622 665.66,96.362 665.66,97.393 C665.66,98.424 664.971,99.164 663.913,99.164 L660.365,99.164 L660.365,95.622 L663.913,95.622 Z" />
            <path d="M663.383,88.591 C664.363,88.591 664.998,89.278 664.999,90.229 C664.999,91.181 664.336,91.868 663.383,91.868 L660.365,91.868 L660.365,88.591 L663.383,88.591 Z" />
        </g>
    </g>
</svg>